<?xml version="1.0" encoding="UTF-8"?>
<svg id="Layer_1" data-name="Layer 1" xmlns="http://www.w3.org/2000/svg" viewBox="0 0 450 300">
  <defs>
    <style>
      .cls-1 {
        font-family: Norse-Bold, Norse;
        font-size: 73.98px;
        font-weight: 700;
      }

      .cls-2 {
        fill: #fff;
      }

      .cls-3 {
        letter-spacing: 0em;
      }

      .cls-4 {
        letter-spacing: -.02em;
      }

      .cls-5 {
        letter-spacing: -.03em;
      }

      .cls-6 {
        letter-spacing: -.03em;
      }

      .cls-7 {
        letter-spacing: -.01em;
      }

      .cls-8 {
        letter-spacing: 0em;
      }
    </style>
  </defs>
  <g>
    <path d="M186.88,72.84l.39-.2c2.2,1.8,3.91,4.06,5.87,6.08,3.35,3.43,6.88,6.71,10.2,10.18.26.27.42.62.68.88l7.55-7.54c.8-1.59,3.77-3.36,4.48-4.73.8-1.56-.26-5.3.02-7.13l-1.08.58-9.98,10.19-14.22-14.39c-2.02-.88-2.23,2.82-2.9,3.95-.1.18-.49.88-.73.45l-.2-12.16,24.3-.18c3.36,2.85,7.11,4.91,11.66,4.89l.29,29.98h8.82c.62.78.47,1.89.5,2.82-.06.21-2.59.51-3.04.52-1,.03-1.85-.21-2.74-.21-5.26-.02-10.52-.05-15.78.12-5.06,4.85-9.49,10.37-14.81,14.99-.05.92.31,1.93.32,2.83.04,7.86-.3,15.86-.22,23.71.05,4.88.27,9.73.3,14.61-2.52-2.34-4.78-4.88-7.05-7.45-.52-.58-2.34-2.09-2.45-2.65l-.02-40.15c3.26-.64,6.23-2.61,7.76-5.59,3.31-6.45-.86-13.89-7.94-14.51v-9.9ZM214.21,65.89h-18.32c-.09.34.14.39.29.59,2.15,2.81,5.33,5.68,9.01,5.7,3.88.02,4.63-1.83,7.05-4.14.75-.72,1.75-1.47,2.56-2.15.26-.49-.54,0-.59,0Z"/>
    <path d="M263.1,69.02c2.95-3.68,7.52-5.46,10.9-8.59,6.47-.6,12.98.24,19.47-.03.24.24-.26,3.13-.16,3.77.17,1.06,1.4,1.81,1.49,2.44s-.34,2.14-.36,2.89c-.08,2.32-.01,4.66.21,6.97l-10.78-.2c-.09.58.27.88.58,1.28,2.63,3.31,7.35,7.35,10.48,10.48,3.53,3.53,7.75,7.18,10.98,10.97,1.55,1.81,2.26,2.81,1.47,5.29-.19.17-1.82-1.16-2.06-1.37-4.32-3.71-8.93-8.69-13.13-12.74-2.72-2.62-9.34-10.11-12.18-11.53-1.37-.69-1.78.03-.95,1.15,1.42,1.95,4.56,4.92,6.37,6.75,6.18,6.29,12.7,12.25,18.91,18.52,1.39,1.41,3.07,2.74,4.32,4.3,1.11,1.4.71,1.16.68,2.65-.01.75,0,1.5,0,2.25-.94-.95-2.1-1.83-3.04-2.74-9.32-9.02-18.22-18.56-28.06-27.01-.49-.46-3.1-1.18-2.78.03,2.48,2.35,5.06,4.61,7.52,6.98,8.78,8.45,17.29,17.04,25.86,25.68,1,1.01,3.24,2.6,3.24,4.21v3.33s.42.34.1.49c-2.56-2.12-4.46-4.96-6.75-7.36-7.17-7.48-15.28-15.31-22.94-22.33-2.56-2.34-4.83-5.36-8.44-6.1l-.18-20.45h-10.78ZM282.25,64.17c-.47.1-1.59.85-1.91,1.23-2.7,3.24,1.13,7.19,4.38,4.97,2.92-1.99.99-6.92-2.47-6.19Z"/>
    <path d="M151.8,76.47c-.04-2.38.06-4.78,0-7.16-.02-1.04-.51-2.31-.06-3.37.18-.42.79-.67.82-1.11.04-.65-1.33-3.85-.64-4.24l19.14-.35c3.27,3.71,8.36,5.39,11.89,8.89.03.64-.4.1-.49.1h-11.07l-.39,20.18c-1.38-.55-3.19,1.24-4.22,2.15-6.06,5.34-12.38,12.3-18.13,18.13-5.01,5.08-9.87,10.38-14.99,15.38-.54.05-.16-.12-.14-.34.13-1.91.14-3.21,1.14-4.93,6.89-7.81,14.55-15.01,21.94-22.35,4.23-4.2,8.4-8.45,12.63-12.64-1.15-.87-3.71.77-4.7,1.57-5.05,4.06-9.52,9.87-14.4,14.21l-12.64,12.54c-.04-1.41.47-2.8.23-4.17,6.22-8.08,14.42-14.52,21.32-21.99,1.52-2.16,5.55-4.68,6.83-6.69.23-.36.57-1.13.62-1.54.09-.71-.71.1-.97.21-3.38,1.48-4.17,2.64-6.67,5.09-3.76,3.69-7.53,7.4-11.28,11.06-2.69,2.63-5.2,5.49-8.12,7.84l-.09-2.56c-.29-.42-1.53.09-1.28-.47,2.22-2.48,4.58-4.83,6.95-7.16,4.75-4.67,10.62-9.5,14.9-14.49.23-.27,1.32-1.52,1.08-1.77-.46-.17-.95,0-1.27,0h-7.94ZM162.53,64.16c-2.66.37-3.84,3.89-1.99,5.82,2.61,2.74,6.94-.77,5.02-4.04-.59-1-1.81-1.95-3.03-1.78Z"/>
    <path d="M273.88,90.87c.02-.07.31-.34.39-.29-.04.24.09.32.25.45,3.28,2.75,6,5.62,9.06,8.57,2.72,2.62,5.8,5,8.11,7.98.1.21-.17.46-.17.54v10.09l2.63.17.31-.27v-6.86c0-.15.32-.57.2-.88.81.22,1.05.95,1.56,1.47,3.12,3.21,6.49,6.18,9.61,9.4v25.96c-1.62-1.6-3.45-3.04-4.84-4.83.04-.38.16-.74.15-1.14-.04-2.57,0-5.1,0-7.64,0-4.93-.02-9.87,0-14.8-.76.1-1.78-.28-2.35.29v21.26l-4.47-4.06c-.08-.57-.06-1.15-.04-1.72.15-3.71.64-9.16.2-12.75-.03-.21,0-.45-.19-.59l-26.54-.1c-.44.12-.34,3.8-.33,4.43.01.56.21,1.04.21,1.55.04,2.67-.15,5.36.16,8.01l-2.62,2.09-3.62,3.92-.2-38.41c1.39.22,3-.49,4.18-1.21.26-.16,1.75-1.51,1.9-1.34l.2,18.42,13.52-.39v-12.05l-.25-.44c-2.32-.92-3.66-3.59-5.53-5.15-.49-.41-1.47-.48-1.47-1.27v-8.43ZM288.78,118.21c-.35-1.89-.16-3.85-.2-5.78-.03-1.49-.25-2.99-.2-4.52.02-.53.47-1.63.02-1.97-.25-.18-.88.11-1.27.12-.94.02-1.9-.05-2.84,0l-.21,12.14h4.7Z"/>
    <path d="M258.99,82.74c-4.59.21-8.38,4.87-8.63,9.3-.32,5.69,3.21,9.33,8.44,10.78l.17.23.04,39.96-.2.78-8.83,8.91c-.04-.98-.22-1.85-.21-2.85,0-.56.21-1.04.21-1.55.14-12.02-.22-24.06.11-36.07l-7.66-7.54c-.46-1,.12-3.32.11-4.41,0-.56-.22-1.04-.22-1.56-.03-3.3-.04-6.61.1-9.91,3.75-3.21,7.03-6.98,10.48-10.49,1.95-1.98,3.89-4.07,6.08-5.78v10.19Z"/>
    <path d="M187.07,33.65c0-.07-.19-.22-.2-.4l.08-.28c.27-.2.56-.35.8-.58,6.95-6.65,13.37-13.98,20.47-20.49.99-.91,3.49-3.26,4.66-3.39.22-.02.44-.11.64.04l.39,28.2c-2.59,1.51-5.04,4.21-5.69,7.19h-21.16c-.09-3.42.12-6.87,0-10.29Z"/>
    <path d="M222.93,179.35c-.2.23-1.94-1.61-2.16-1.86-.99-1.08-1.82-2.37-2.86-3.41-.47-.48-1.52-.88-1.64-1.49v-61.14c-.1-.7-.04-1.47-.79-1.75l7.94-8.52c.97,2.07,3.01,3.4,4.51,5.09,1,1.12,1.93,2.51,2.84,3.72-2.18-.62-4.68-.13-6.5-1.58-.44-.35-.68-1.09-1.33-.96v71.92Z"/>
    <path d="M164.34,118.21l14.11-.09v-18.33s3.59,2.38,3.59,2.38l2.68.55c-.01,4.41.01,8.82,0,13.24,0,1.73,0,3.54,0,5.27,0,6.57.16,13.16-.3,19.7-1.9-2.27-4.08-4.33-6.09-6.46-.04-1.09.32-2.38.32-3.43,0-.7-.23-1.3-.22-1.95.04-2.65.37-5.29.21-7.95h-26.46s.09-2.75.09-2.75l2.07-.18.19-9.31-.31-.47-.86.08c3.18-3.84,6.87-7.24,10.39-10.77,1.59-1.59,3.03-3.36,4.7-4.91.81-.76,2.16-1.19,2.36-2.45.36.07.36.39.4.68.29,2.64-.09,6.03-.24,8.7-1.69.56-2.53,2.26-3.69,3.47-.93.97-1.98,1.8-2.94,2.74v12.25ZM157.48,106.06v12.15h4.12l-.37-12.04c-.18-.26-3.08.36-3.74-.11Z"/>
    <path d="M232.34,170.72v-59.77s7.4,8.15,7.4,8.15c-.47,14.91.19,29.99-.33,44.86-1.36.6-1.91,1.86-2.85,2.83-1.34,1.38-2.74,2.68-4.21,3.92Z"/>
    <path d="M213.72,111.15v58.98l-6.37-6.07-.47-.9c-.36-13.83.44-27.72,0-41.54-.03-.95-.29-2.13-.35-3.1,1.3-1.43,2.67-2.81,3.97-4.23.94-1.03,1.87-2.83,3.23-3.14Z"/>
    <path d="M184.53,43.35c-.54-.25-1.02-.59-1.47-.98-6.7-5.63-13-13.48-19.49-19.5-1.52-1.41-3.35-2.71-4.9-4.11-1.71-1.54-3.23-3.33-5.11-4.7l-.16-.39c.24-1.73.28-3.75.19-5.51-.06-1.13-.57-2.3-.3-3.42.78.71,1.46,1.55,2.25,2.26,9.87,8.84,19.89,17.63,29.09,27.14l-.09.29v8.92Z"/>
    <path d="M261.34,33.85s-.13-.15-.1-.31c7.96-8.14,16.62-15.65,24.99-23.4,1.81-1.67,4.13-4.4,5.97-5.79.15-.12.34-.39.5-.09-.82,3.15-.09,6.49-.69,9.7-.65.38-1.3.78-1.87,1.27-7.93,6.82-15.72,14.54-23.13,21.94-1.49,1.49-2.81,3.21-4.4,4.62-.4.35-.85.66-1.28.97.1-2.96-.14-5.96,0-8.92Z"/>
    <path d="M250.66,26.7c.39-.02,1.2-.48,1.66-.3l4.32,4.02-24.5.2.3-22.15c.24,0,.47.02.69.1,2.21.76,7.12,6.04,9,7.85,2.83,2.72,5.69,5.41,8.43,8.23-1.03-.02-2.24.29-3.22.3-.84.01-5.25-.54-5.41.12v1.63c2.87-.13,5.88.18,8.73,0ZM238.42,20.82c.23-1.76-.88-2.42-2.46-1.78l-.09,1.78h2.55ZM238.61,24.74h-2.74v1.96h2.74v-1.96Z"/>
    <path d="M220.93,36.35c9.08-1.14,16.87,6.81,14.16,15.93-4.21,14.19-26.62,10.39-25.06-4.88.54-5.27,5.69-10.39,10.9-11.05ZM220.53,40.46c-1.25.19-3.34,1.53-4.24,2.42-1.87,1.84-2.27,4.6-4.52,6.05,1.99,1.26,2.65,3.53,4.21,5.2,3.15,3.38,7.77,4.24,11.8,1.8,2.26-1.37,2.86-3.42,4.38-5.23.57-.68,1.39-.97,1.71-1.77-2.03-1.32-2.46-3.45-3.97-5.19-2.54-2.94-5.48-3.89-9.36-3.28Z"/>
    <path d="M258.99,43.94c-.7.07-1.35-.18-2.05-.21-6.42-.21-12.88.16-19.28.17-1.11-2.74-3.01-5.1-5.29-6.96l-.21-3.87.65-.32c7.82.35,15.73-.34,23.53-.19.88.02,1.88.38,2.83.2.07.21-.2.43-.2.49v10.68ZM237.84,37.85c.08.11,2.25.4,2.62.42,3.12.19,9.4.37,12.36,0,.21-.03.45,0,.59-.19.6-3.05-2.08-1.66-3.92-1.57-3.35.15-7.33-.37-10.57.02-.93.11-1.16.34-1.08,1.33Z"/>
    <path d="M146.91,140.55c-.03-2.25.03-4.51,0-6.77-.02-1.89,0-3.79,0-5.67,0-3.12.11-6.24-.3-9.33-1.29-.17-1.76-.04-1.88,1.28-.38,4.39-.09,9.95-.19,14.5-.05,2.14.35,5.75,0,7.64-.13.73-4.49,5.08-4.69,4.81-.17-1.48.21-2.95.2-4.42,0-.56-.21-1.04-.21-1.55-.04-6.34.05-12.68,0-19.02l11.37-11.66c.02,2.45-.02,4.9,0,7.36,0,1.42-.01,2.89,0,4.29.04,4.73.22,9.39.2,14.11l-4.5,4.41Z"/>
    <path d="M256.44,65.69c-1.43,1.79-3.44,3.05-5.1,4.6-3.71,3.47-6.95,7.42-10.48,11.07-2.24-1.92-3.94-4.28-5.88-6.47-1.19-1.34-5.25-5.14-5.54-6.61-.19-.94.59-2.01-.24-2.31l27.24-.29Z"/>
    <path d="M222.35,8.86l-.2,24.89c-1.96-.37-4.18.54-5.87,1.57l-.2-26.65c.21-.07.43.2.49.2h5.78Z"/>
    <path d="M229.79,8.86v26.45c-.95-.42-1.75-.95-2.79-1.23-.81-.22-1.65-.39-2.5-.34V9.16c0-.06-.25-.15-.2-.29h5.49Z"/>
    <path d="M184.68,85.15c5.46-.63,9.88,4.01,8.28,9.46s-7.69,7.5-12.16,3.72c-5.05-4.28-2.42-12.44,3.88-13.17ZM184.87,88.86c-2.58.45-3.67,3.4-2.6,5.64,2.66,5.62,9.25.79,6.93-3.6-.86-1.63-2.54-2.35-4.33-2.04Z"/>
    <path d="M258.74,85.33c7.74-1.3,12.25,7.47,6.81,12.89-6.13,6.1-15.8-2.11-11.47-9.51.84-1.44,3.01-3.1,4.66-3.38ZM259.72,88.86c-4.7.8-3.61,9.05,1.67,8.14,4.66-.81,3.78-9.06-1.67-8.14Z"/>
    <path d="M281.72,45.31l-8.92,9.21c-.51.54-1.97,2.69-2.55,2.75-.32.03-.76-.2-1.16-.21-2.35-.04-4.51-.02-6.87-.19-.29-.02-.57.15-.49-.29l11.97-11.58c.22.02.55.31.67.31h7.35Z"/>
    <path d="M171.99,45.31s.06.37.28.59c3.58,3.67,7.61,6.89,11.08,10.68.09.47-.21.23-.48.3-1.29.29-5.72.53-7.07.4-1.22-.12-.96-.66-1.64-1.29-2-1.85-3.29-3.55-5.1-5.48-1.58-1.68-3.3-3.25-5-4.8l.2-.39h7.74Z"/>
    <path d="M274.67,32.97c3.05-3.11,6.05-6.31,9.22-9.3.69-.65.35-.77,1.66-.88,1.73-.15,4.85.19,6.67.38.21.02.45,0,.59.2.22,1.84-1.06,1.54-2.17,2.36l-7.39,7.3c-2.86.46-5.72-.14-8.58-.05Z"/>
    <path d="M170.42,32.77l-8.03.29c-2.96-2.88-5.82-5.94-9.16-8.38l-.05-1.71c1.6-.04,3.21.05,4.81,0,.84-.02,1.8-.48,2.63-.1.2.09,2.79,2.63,3.22,3.05,2.25,2.21,4.35,4.62,6.58,6.84Z"/>
    <path d="M307,96.36l-18.62-17.93h4.6c.48,0,6.23,5.58,7.15,6.37,1.86,1.6,3.85,3.09,5.79,4.6.45.51.66,1.29.79,1.96.08.4.28,1.75.28,2.07v2.94Z"/>
    <path d="M156.9,78.04l-17.44,16.85c-.03-2.1-.86-4.17-.5-6.28,3.27-.88,5.16-3.84,7.55-5.97,1.49-1.32,4.75-4.19,6.59-4.38,1.26-.13,2.55.13,3.8-.22Z"/>
    <path d="M187.07,46.29h20.38c-.02,1.36-.51,2.79,0,4.12h-20.38v-4.12Z"/>
    <path d="M207.94,52.95l1.47,3.43c-1.62.69-3.55.11-5.18.09-5.73-.09-11.45.06-17.15.2v-3.72h20.87Z"/>
    <path d="M259.19,53.15c-.38,1.17-.16,2.34,0,3.52h-23.12s1.32-3.28,1.32-3.28l.54-.45,21.26.21Z"/>
    <path d="M258.99,46.88v3.53h-20.77c.36-1.02.26-2.28,0-3.33.19.05.42-.2.49-.2h20.28Z"/>
    <path d="M172.97,35.12l7.84,7.94c-1.43.52-2.86.08-4.2.09s-3.29.52-4.4-.11l-7.46-7.92h8.23Z"/>
    <path d="M292.11,35.12l-8.52,8.03h-8.13l8.53-8.24c.29-.02.5.21.58.21h7.54Z"/>
    <path d="M280.15,35.32l-7.69,7.69c-2.78.36-5.58.45-8.38.15l8.04-7.93,8.03.1Z"/>
    <path d="M161.89,35.12c1.78,2.26,3.83,4.26,5.87,6.28.5.49,1.19.73,1.47,1.47.05.4-.02.25-.29.29-1.53.21-4.97.36-6.48.21-.28-.03-.56.02-.78-.2-1.92-1.8-3.57-3.89-5.47-5.7-.55-.53-1.6-1.54-2.15-1.96-.27-.2-.72-.05-.69-.38h8.52Z"/>
    <path d="M182.27,45.31c.94.11,1.83.53,2.41,1.31l-.16,8.29-9.6-9.6c2.33.2,5.07-.26,7.35,0Z"/>
    <path d="M261.34,72.94s.61.36.71.46c1.74,1.65,3.37,4.57,5.14,6.32.68,1.8-.39,3.7.22,5.56-.15.17-1.63-1.17-1.9-1.34-1.16-.71-2.59-1.36-3.99-1.31l-.19-.2v-9.5Z"/>
    <path d="M184.53,82.54c-1.76.06-4.02,1.06-5.3,2.24-.27.25-.27.66-.57.7.29-1.68-.44-3.8-.19-5.38s4.82-5.5,6.06-6.77v9.21Z"/>
    <polygon points="270.16 45.31 261.34 53.93 261.23 45.69 270.16 45.31"/>
    <path d="M185.31,14.35c.19-.04.25.01.39.09,1.2.67,2.78,3.3,4.1,4.15l-4.23,4.37-4.37-4.23c-.04-.25,2.42-2.64,2.82-3.02.46-.43,1.19-.66,1.28-1.37Z"/>
    <path d="M257.42,155.44c.68-.74,3.88-6.48,4.41-6.48.48,0,4.46,5.96,5.39,6.58-.16.33-.57-.1-.68-.1h-9.11Z"/>
    <path d="M275.26,141.53c0,1.95-.08,3.87.19,5.79.09.63-.85-.07-1.21-.16-.61-.17-2.62-.43-2.89-.63-.16-.12-.6-1.35-.82-1.72-.76-1.26-1.63-2.49-2.51-3.66,2.39.52,4.82.38,7.25.39Z"/>
    <path d="M282.9,141.14c-1.18,1.03-2.54,4.53-3.62,5.29-.79.56-2.47.52-3.43.78.33-.8.02-1.37,0-2.06-.04-1.28.19-2.43-.39-3.62,2.48-.13,5.05.34,7.45-.39Z"/>
    <path d="M163.95,139.96c-.1-.08,1.06-1.98,1.21-2.22.36-.56,1.4-2.13,1.82-2.49.9-.78,2.63-.83,3.63-1.57-.22,2.18-.38,4.5,0,6.66-.34.14-.73-.39-.88-.39h-5.78Z"/>
    <path d="M170.81,147.6c-3.76-.62-5.2-4-7.64-6.46,2.17.22,4.38.45,6.57.39.26,0,.82-.35.87.09,0,.04-.19.34-.19.59-.05,1.77-.16,3.71.4,5.39Z"/>
    <path d="M275.06,139.86c0,.06.29.22.2.29-1.29-.51-2.61,0-3.82.02-.89.01-1.82-.46-2.84-.02-.12-.09,1.23-2.34,1.41-2.61,1.42-2.08,2.41-2.84,4.97-3.26.58-.09.09.23.09.28,0,1.56-.2,3.84,0,5.29Z"/>
    <path d="M276.04,134.77s-.49-.4.09-.29c1.53.31,2.61.42,3.63,1.67.42.51,2.38,3.61,2.55,4.11.03.1.05.32-.09.29-.31-.26-1.45-.59-1.76-.59h-4.12c-.06,0-.27.27-.49.2-.12-.28.19-.58.19-.69,0-1.55.07-3.16,0-4.7Z"/>
    <path d="M171.4,134.18s-.47-.47.09-.29c.51.16,2.43,1.08,2.78,1.43,1.08,1.07,2.17,3.66,3.2,4.93-1.97-.35-4.12-.49-6.08-.1-.07-1.98.09-3.99,0-5.98Z"/>
    <path d="M178.06,141.33s-.32.03-.47.21c-1.03,1.2-2.21,3.21-3.25,4.21-.81.78-2.22,1.18-3.14,1.85.09-2.12.39-4.15,0-6.27,2.2.29,4.77.5,6.86-.39v.39Z"/>
    <path d="M305.82,86.86c-.17.21-3.96-3.1-4.31-3.43-1.34-1.25-2.5-2.86-4.01-4.02-.63-.48-1.55-.73-2.06-1.37.98.27,2.04.08,3.02.21,1.69.23,2.93,2.4,4.03,3.61.57.62,1.28.97,1.85,1.67.75.9,1.31,2.16,1.48,3.32Z"/>
    <path d="M289.17,48.45l2.93,3.23-2.84,3.04-3.03-3.23c0-.41,2.93-2.22,2.94-3.04Z"/>
    <path d="M185.24,149.04c.43.41,1.85,2.22,2.23,2.77.11.17.27.21.19.49-.69.15-1.22.99-1.9,1.14-1.68.37-3.28-.16-4.56-1.23l3.42-3.62c.16.21.44.29.62.46Z"/>
    <path d="M154.15,51.97v-.38c1.17-.53,1.99-1.81,2.84-2.75l2.83,3.04c-1.16.78-1.94,1.98-2.84,3.03-.29,0-1.98-3-2.84-2.94Z"/>
    <path d="M172.32,107.45c.33-.09,3.01,1.69,3.01,2.03-.67,1.28-2.04,2.02-2.85,3.24l-2.66-2.84,2.5-2.43Z"/>
    <path d="M287.5,127.42c.08,0,.26-.27.49-.2.12.28-.19.58-.19.69v3.04l-4.02.2c-.27-.03.1-.25.1-.29v-3.43c1.16-.1,2.49.13,3.63,0Z"/>
    <path d="M162.78,127.42l-.39,3.72h-3.43s-.22.29-.29.2c.42-1.34-.14-2.55,0-3.92h4.12Z"/>
    <path d="M271.57,108.45c1,.02,1.3-.87,2.33-.54.28.09,1.43,1.14,1.57,1.38.7,1.2-1.82,2.97-3.01,2.61-1.13-.34-1.34-2.54-.89-3.45Z"/>
    <path d="M194.09,162.84c-.18.1-3.93.38-4.08.24.09-.76.2-1.68.45-2.39.27-.78.85-1.16.93-1.92l3.32,3.23c-.27.11-.53.79-.62.84Z"/>
    <path d="M148.08,78.43l-9.01,8.62c.02-.5.42-.96.7-1.35,1.66-2.36,4.13-4.35,5.75-6.79.66-.47,1.78-.47,2.56-.47Z"/>
    <path d="M252.52,160.53c.88.49,2.61-.2,3.27.64.26.32.61,2.85.45,3.08-.15.04-.24-.2-.29-.2h-3.43v-3.53Z"/>
    <path d="M260.46,17.94c.36.37,2.05,1.12,2.03,1.57-.05.95-1.61,2.34-2.22,3.07l-2.23-3.01,2.42-1.63Z"/>
    <path d="M245.17,145.25c.1.02.47.21.5.33-.1.72.26,1.69-.3,2.22h-2.84l-.2-2.55c.88.1,2-.14,2.84,0Z"/>
    <path d="M245.44,151.16l-.16,2.63-2.95-.12.2-2.74c.98.58,1.97-.29,2.91.23Z"/>
    <path d="M258.99,65.5l-1.18-.2c.01-1.49-.19-3.53,1.18-4.51v4.7Z"/>
    <path class="cls-2" d="M214.21,65.89c.05,0,.85-.49.59,0-.81.68-1.81,1.43-2.56,2.15-2.42,2.31-3.16,4.16-7.05,4.14-3.68-.02-6.86-2.89-9.01-5.7-.15-.2-.38-.25-.29-.59h18.32Z"/>
    <path class="cls-2" d="M282.25,64.17c3.46-.73,5.39,4.2,2.47,6.19-3.25,2.22-7.08-1.72-4.38-4.97.32-.38,1.44-1.13,1.91-1.23Z"/>
    <path class="cls-2" d="M162.53,64.16c1.21-.17,2.44.78,3.03,1.78,1.93,3.27-2.41,6.77-5.02,4.04-1.85-1.94-.67-5.45,1.99-5.82Z"/>
    <path class="cls-2" d="M288.78,118.21h-4.7l.21-12.14c.94-.05,1.9.02,2.84,0,.4-.01,1.03-.31,1.27-.12.46.34,0,1.44-.02,1.97-.05,1.53.17,3.03.2,4.52.04,1.93-.16,3.89.2,5.78Z"/>
    <path class="cls-2" d="M157.48,106.06c.67.48,3.56-.14,3.74.11l.37,12.04h-4.12v-12.15Z"/>
    <rect class="cls-2" x="235.87" y="24.74" width="2.74" height="1.96"/>
    <path class="cls-2" d="M238.42,20.82h-2.55s.09-1.78.09-1.78c1.58-.64,2.7.02,2.46,1.78Z"/>
    <path class="cls-2" d="M220.53,40.46c3.88-.6,6.82.34,9.36,3.28,1.51,1.74,1.93,3.87,3.97,5.19-.32.8-1.14,1.09-1.71,1.77-1.52,1.81-2.12,3.86-4.38,5.23-4.03,2.44-8.65,1.58-11.8-1.8-1.56-1.67-2.22-3.93-4.21-5.2,2.26-1.45,2.65-4.21,4.52-6.05.9-.89,2.99-2.23,4.24-2.42ZM230.5,49.16c.22-.37.41-.67.18-1.1-1.61-1.13-3.08-3.4-4.8-4.22-5.07-2.41-8.02,1.49-10.98,4.9l.19.4c2.92,2.72,4.19,5.97,8.88,5.33,3.02-.41,3.8-2.34,5.44-4.36.25-.31.93-.67,1.1-.95Z"/>
    <path class="cls-2" d="M237.84,37.85c-.08-.99.16-1.22,1.08-1.33,3.24-.38,7.22.14,10.57-.02,1.84-.08,4.52-1.47,3.92,1.57-.14.2-.38.17-.59.19-2.96.37-9.24.19-12.36,0-.37-.02-2.54-.3-2.62-.42Z"/>
    <path class="cls-2" d="M184.87,88.86c1.79-.31,3.47.41,4.33,2.04,2.31,4.39-4.27,9.22-6.93,3.6-1.06-2.24.02-5.2,2.6-5.64Z"/>
    <path class="cls-2" d="M259.72,88.86c5.45-.93,6.33,7.33,1.67,8.14-5.28.91-6.37-7.33-1.67-8.14Z"/>
    <path d="M230.5,49.16c-.17.28-.85.64-1.1.95-1.64,2.02-2.42,3.95-5.44,4.36-4.68.64-5.96-2.61-8.88-5.33l-.19-.4c2.96-3.41,5.91-7.31,10.98-4.9,1.72.82,3.19,3.09,4.8,4.22.23.43.04.74-.18,1.1ZM222.29,46.33c-.46.1-.63.34-.84.73-1.61,2.99,2.29,4.78,3.29,2.32.66-1.62-.66-3.45-2.45-3.04Z"/>
    <path class="cls-2" d="M222.29,46.33c1.79-.41,3.12,1.42,2.45,3.04-1.01,2.46-4.91.68-3.29-2.32.21-.39.38-.62.84-.73Z"/>
  </g>
  <text class="cls-1" transform="translate(3 248.29)"><tspan x="0" y="0">M</tspan><tspan class="cls-5" x="36.47" y="0">y</tspan><tspan x="63.84" y="0" xml:space="preserve">  Odin  P</tspan><tspan class="cls-8" x="264.6" y="0">r</tspan><tspan class="cls-6" x="294.12" y="0">o</tspan><tspan x="322.52" y="0">j</tspan><tspan class="cls-7" x="343.16" y="0">e</tspan><tspan class="cls-3" x="369.2" y="0">c</tspan><tspan class="cls-4" x="392.13" y="0">t</tspan><tspan class="cls-3" x="416.4" y="0">s</tspan></text>
</svg>